<svg width="205" height="70" viewBox="0 0 205 70" fill="none" xmlns="http://www.w3.org/2000/svg">
<mask id="mask0" style="mask-type:alpha" maskUnits="userSpaceOnUse" x="14" y="9" width="50" height="48">
<path d="M39 9L32.4917 20.4855L19.4542 18.4128L24.3761 30.6622L14.6268 39.563L27.2725 43.3525L28.1529 56.5244L39 49L49.8472 56.5244L50.7275 43.3525L63.3731 39.563L53.6241 30.6622L58.5459 18.4128L45.5081 20.4855L39 9Z" fill="#C4C4C4"/>
</mask>
<g mask="url(#mask0)">
<path d="M74.2916 -0.375L85.875 54.2009L-4.75 65.25L3.5 6.43303L50.0416 8.77678L58.5 3.86606L70.5834 5.09375L74.2916 -0.375Z" fill="#FFDB4D"/>
<path d="M74.2916 9L85.875 35.4509L-4.75 46.5L3.0625 16.8125L34.3125 27.75L45.25 19.9375L70.5834 14.4688L74.2916 9Z" fill="#FFAC3C"/>
<path d="M77.4166 24.625L85.875 47.9509L-4.75 59L6.625 28.308L34.3125 37.125L48.375 26.1875L73.7084 30.0938L77.4166 24.625Z" fill="#FF5958"/>
<path d="M77.4166 34L85.875 57.3259L-4.75 68.375L9.3125 38.6875L37.5417 46.2769L49.9375 35.5625L64 41.8125L77.4166 34Z" fill="#9F6FEE"/>
</g>
<path d="M89.5989 52.5124V46.4724C89.5989 41.9182 89.0339 40.5778 87.2907 36.7988L78.1872 16.9346H71.7308L83.4007 42.322V52.5124H89.5989ZM93.6341 34.1341L101.204 16.9346H94.9254L87.3391 34.1341H93.6341ZM120.946 34.9415C120.946 28.7078 117.782 26.3499 111.326 26.3499C107.29 26.3499 104.111 27.6257 102.271 28.7078V33.7788C103.917 32.5352 107.5 31.211 110.615 31.211C113.537 31.211 114.861 32.2284 114.861 35.0061V36.4273H113.892C104.579 36.4273 100.43 39.5119 100.43 44.7283C100.43 49.9446 103.61 52.8677 108.307 52.8677C111.891 52.8677 113.424 51.6888 114.602 50.4614H114.861C114.909 51.1235 115.119 51.9956 115.329 52.5124H121.252C121.059 50.413 120.946 48.3135 120.946 46.214V34.9415ZM114.861 46.3594C114.102 47.4899 112.665 48.4104 110.519 48.4104C107.952 48.4104 106.677 46.9731 106.677 44.7767C106.677 41.8536 108.775 40.7877 113.989 40.7877H114.861V46.3594ZM134.714 26.253C128.887 26.253 124.836 30.8072 124.836 39.092C124.836 47.4414 128.887 51.9956 134.714 51.9956C137.426 51.9956 139.685 50.8167 141.267 48.6203C141.106 53.4814 139.734 55.6293 134.456 55.6293C131.034 55.6293 128.419 54.1435 126.837 53.1746V58.1325C126.837 58.1325 129.549 60.4419 135.376 60.4419C144.431 60.4419 147.352 56.0977 147.352 47.4899V26.7536H141.719L141.413 29.9351C139.831 27.5288 137.523 26.253 134.714 26.253ZM136.247 47.183C132.826 47.183 131.131 44.7283 131.131 39.092C131.131 33.5204 132.826 31.0656 136.247 31.0656C139.572 31.0656 141.267 33.5204 141.267 39.1405C141.267 44.7283 139.572 47.183 136.247 47.183ZM158.554 36.4273C160.249 33.3104 162.751 31.7278 166.496 31.9216V26.1884C163.009 26.3984 160.152 28.4978 158.716 31.8731H158.554L158.409 26.7536H152.469V52.5124H158.554V36.4273Z" fill="white"/>
</svg>
