<svg viewBox="0 0 418 418" fill="none" xmlns="http://www.w3.org/2000/svg">
<path d="M215.273 410.072C212.07 414.12 205.93 414.12 202.727 410.072L148.843 341.979C147.32 340.053 144.996 338.934 142.54 338.943L55.7069 339.271C50.5453 339.291 46.7165 334.489 47.8841 329.462L67.5258 244.879C68.0813 242.487 67.5073 239.972 65.9689 238.058L11.5732 170.373C8.33977 166.35 9.70625 160.363 14.3651 158.141L92.7411 120.761C94.9577 119.704 96.5659 117.687 97.1034 115.291L116.106 30.5622C117.235 25.5257 122.768 22.8612 127.41 25.1183L205.502 63.089C207.71 64.1629 210.29 64.1629 212.498 63.089L290.59 25.1183C295.232 22.8612 300.765 25.5257 301.894 30.5622L320.897 115.291C321.434 117.687 323.042 119.704 325.259 120.761L403.635 158.141C408.294 160.363 409.66 166.35 406.427 170.373L352.031 238.058C350.493 239.972 349.919 242.487 350.474 244.879L370.116 329.462C371.284 334.489 367.455 339.291 362.293 339.271L275.46 338.943C273.004 338.934 270.68 340.053 269.157 341.979L215.273 410.072Z" fill="#027BF3"/>
<path d="M212.137 357.036C210.535 359.06 207.465 359.06 205.863 357.036L164.701 305.019C163.939 304.056 162.777 303.496 161.549 303.501L95.2164 303.751C92.6356 303.761 90.7212 301.36 91.305 298.847L106.31 234.233C106.587 233.036 106.3 231.779 105.531 230.822L63.9775 179.117C62.3608 177.105 63.044 174.112 65.3735 173.001L125.246 144.446C126.354 143.917 127.158 142.909 127.427 141.711L141.943 76.9851C142.508 74.4668 145.275 73.1346 147.596 74.2631L207.251 103.27C208.355 103.806 209.645 103.806 210.749 103.27L270.404 74.2631C272.725 73.1346 275.492 74.4669 276.057 76.9851L290.573 141.711C290.842 142.909 291.646 143.917 292.754 144.446L352.627 173.001C354.956 174.112 355.639 177.105 354.022 179.117L312.469 230.822C311.7 231.779 311.413 233.036 311.69 234.233L326.695 298.847C327.279 301.361 325.364 303.761 322.784 303.751L256.451 303.501C255.223 303.496 254.061 304.056 253.299 305.019L212.137 357.036Z" fill="#DFEDFD"/>
<path d="M212.137 316.036C210.535 318.06 207.465 318.06 205.863 316.036L176.976 279.53C176.214 278.567 175.052 278.008 173.824 278.013L127.272 278.188C124.691 278.198 122.776 275.797 123.36 273.284L133.89 227.937C134.168 226.741 133.881 225.484 133.112 224.527L103.95 188.24C102.333 186.229 103.016 183.235 105.346 182.124L147.364 162.084C148.472 161.556 149.276 160.547 149.545 159.349L159.733 113.925C160.297 111.407 163.064 110.074 165.385 111.203L207.251 131.56C208.355 132.096 209.645 132.096 210.749 131.56L252.615 111.203C254.936 110.074 257.703 111.407 258.267 113.925L268.455 159.349C268.724 160.547 269.528 161.556 270.636 162.084L312.654 182.124C314.984 183.235 315.667 186.229 314.05 188.24L284.888 224.527C284.119 225.484 283.832 226.741 284.11 227.937L294.64 273.284C295.224 275.797 293.309 278.198 290.728 278.188L244.176 278.013C242.948 278.008 241.786 278.567 241.024 279.53L212.137 316.036Z" fill="white"/>
<path d="M136.326 228.503L133.89 227.937L136.326 228.503C136.777 226.559 136.311 224.516 135.061 222.961L105.898 186.674C105.292 185.92 105.548 184.797 106.422 184.381L148.44 164.341C150.241 163.482 151.548 161.843 151.985 159.896L162.172 114.472C162.384 113.528 163.421 113.028 164.292 113.451L206.158 133.808L207.251 131.56L206.158 133.808C207.952 134.68 210.048 134.68 211.842 133.808L210.749 131.56L211.842 133.808L253.708 113.451C254.579 113.028 255.616 113.528 255.828 114.472L266.015 159.896C266.452 161.843 267.759 163.482 269.56 164.341L311.578 184.381C312.452 184.797 312.708 185.92 312.102 186.674L314.05 188.24L312.102 186.674L282.939 222.961C281.689 224.516 281.223 226.559 281.674 228.503L292.205 273.849C292.424 274.792 291.706 275.692 290.738 275.688L244.186 275.513C242.19 275.505 240.302 276.414 239.064 277.979L241.024 279.53L239.064 277.979L210.176 314.485C209.576 315.244 208.424 315.244 207.824 314.485L178.936 277.979C177.698 276.414 175.81 275.505 173.814 275.513L127.262 275.688C126.294 275.692 125.576 274.792 125.795 273.849L136.326 228.503Z" stroke="#027BF3" stroke-opacity="0.33" stroke-width="5"/>
<mask id="mask0" style="mask-type:alpha" maskUnits="userSpaceOnUse" x="113" y="120" width="192" height="187">
<path d="M209 307L179.661 269.924L132.381 270.102L143.075 224.047L113.457 187.193L156.133 166.84L166.479 120.705L209 141.38L251.521 120.705L261.867 166.84L304.543 187.193L274.925 224.047L285.619 270.102L238.339 269.924L209 307Z" fill="white"/>
<path d="M209 302.971L181.621 268.372L180.867 267.419L179.651 267.424L135.53 267.59L145.511 224.612L145.786 223.428L145.024 222.481L117.385 188.089L157.209 169.096L158.306 168.573L158.572 167.387L168.227 124.335L207.907 143.628L209 144.16L210.093 143.628L249.773 124.335L259.428 167.387L259.694 168.573L260.791 169.096L300.615 188.089L272.976 222.481L272.214 223.428L272.489 224.612L282.47 267.59L238.349 267.424L237.133 267.419L236.379 268.372L209 302.971Z" stroke="#027BF3" stroke-opacity="0.33" stroke-width="5"/>
</mask>
<g mask="url(#mask0)">
<path d="M115.122 186.561C111.945 184.475 113.035 185.158 115.122 181.981C117.208 178.805 119.73 178.063 122.907 180.15L207.901 232.15C208.974 232.854 210.351 232.903 211.471 232.275L298.299 185.645C301.614 183.788 303.769 184.619 305.626 187.935C307.483 191.25 288.292 205.016 284.976 206.873L218.197 244.282C212.596 247.419 205.713 247.177 200.347 243.652L115.122 186.561Z" fill="#FC4F51"/>
<path d="M140.904 229.072C137.732 231.164 133.464 230.289 131.372 227.117C129.279 223.945 130.154 219.677 133.326 217.585L177.927 188.161C181.732 185.65 186.378 184.753 190.844 185.666L229.174 193.499C230.345 193.738 231.556 193.353 232.373 192.482L276.594 145.321C279.193 142.549 283.548 142.409 286.32 145.009C289.092 147.608 289.232 151.962 286.633 154.735L242.412 201.895C238.326 206.252 232.272 208.178 226.419 206.982L188.088 199.149C187.195 198.966 186.266 199.146 185.505 199.648L140.904 229.072Z" fill="#1A82E3"/>
</g>
</svg>
