<svg viewBox="0 0 16 16" fill="none" xmlns="http://www.w3.org/2000/svg">
<mask id="mask0" style="mask-type:alpha" maskUnits="userSpaceOnUse" x="0" y="0" width="16" height="16">
<path d="M8 0L5.91736 3.67535L1.74535 3.01208L3.32035 6.9319L0.200577 9.78017L4.24721 10.9928L4.52893 15.2078L8 12.8L11.4711 15.2078L11.7528 10.9928L15.7994 9.78017L12.6797 6.9319L14.2547 3.01208L10.0826 3.67535L8 0Z" fill="#C4C4C4"/>
</mask>
<g mask="url(#mask0)">
<path d="M19.2933 -3L23 14.4643L-6 18L-3.36 -0.821429L11.5333 -0.0714288L14.24 -1.64286L18.1067 -1.25L19.2933 -3Z" fill="#FFDB4D"/>
<path d="M19.2933 0L23 8.46428L-6 12L-3.5 2.5L6.5 6L10 3.5L18.1067 1.75L19.2933 0Z" fill="#FFAC3C"/>
<path d="M20.2933 5L23 12.4643L-6 16L-2.36 6.17857L6.5 9L11 5.5L19.1067 6.75L20.2933 5Z" fill="#FF5958"/>
<path d="M20.2933 8L23 15.4643L-6 19L-1.5 9.5L7.53333 11.9286L11.5 8.5L16 10.5L20.2933 8Z" fill="#9F6FEE"/>
</g>
</svg>
